# xmcd
#
# Track frame offsets: 
#        150
#        14787
#        28632
#        42630
#        56623
#        70570
#        83320
#        99315
#        115077
#        130139
#        146630
#        160609
#        176382
#        191562
#        205258
#        218835
#        231451
#        243682
#        257445
#        270435
#        283092
#
# Disc length: 3938 seconds
#
# Revision: 1
# Processed by: cddbd v1.5.2PL0 Copyright (c) Steve Scherf et al.
# Submitted via: ExactAudioCopyFreeDBPlugin 1.0
#
DISCID=280f6015
DTITLE=Various Artist - Memphis Sanctified Jug Bands (1928-1930)
DYEAR=1900
DGENRE=Gospel Skiffle
TTITLE0=Elder Richard Bryant - The Master Came and Called Me
TTITLE1=Elder Richard Bryant - Saul, a Wicked Man
TTITLE2=Elder Richard Bryant's Sanctified Singers - Come Over Here
TTITLE3=Elder Richard Bryant's Sanctified Singers - How Much I Owe for
TTITLE3=Love Divine
TTITLE4=Elder Richard Bryant's Sanctified Singers - Lord, Lord, He Sur
TTITLE4=e Is Good to Me
TTITLE5=Elder Richard Bryant's Sanctified Singers - Watch Ye, Therefor
TTITLE5=e, You Know Not the Day
TTITLE6=Elder Richard Bryant - A Lie Was Told, but God Know'd It [take
TTITLE6=1]
TTITLE7=Elder Richard Bryant - A Lie Was Told, but God Know'd It [take
TTITLE7=2]
TTITLE8=Elder Richard Bryant - A Wild Man in Town [take 1]
TTITLE9=Elder Richard Bryant - A Wild Man in Town [take 2]
TTITLE10=Elder Richard Bryant - He Shut the Lion's Mouth [take 1]
TTITLE11=Elder Richard Bryant - He Shut the Lion's Mouth [take 2]
TTITLE12=Elder Richard Bryant - Everybody Was There
TTITLE13=Rev. E. S. (Shy) Moore - Christ, the Teacher
TTITLE14=Rev. E. S. (Shy) Moore - The Solemn Warning
TTITLE15=Brother Williams Memphis Sanctified Singers - He's Got the Wh
TTITLE15=ole World in His Hands
TTITLE16=Brother Williams Memphis Sanctified Singers - I Will Meet You
TTITLE16=at the Station
TTITLE17=Holy Ghost Sanctified Singers - Thou Carest Lord, for Me
TTITLE18=Holy Ghost Sanctified Singers - Jesus Throwed Up a Highway fo
TTITLE18=r Me
TTITLE19=Holy Ghost Sanctified Singers - Sinner, I'd Make a Change
TTITLE20=Holy Ghost Sanctified Singers - When I Get Inside the Gate
EXTD=
EXTT0=
EXTT1=
EXTT2=
EXTT3=
EXTT4=
EXTT5=
EXTT6=
EXTT7=
EXTT8=
EXTT9=
EXTT10=
EXTT11=
EXTT12=
EXTT13=
EXTT14=
EXTT15=
EXTT16=
EXTT17=
EXTT18=
EXTT19=
EXTT20=
PLAYORDER=
